<svg id="Layer_2" data-name="Layer 2" xmlns="http://www.w3.org/2000/svg" viewBox="0 0 278.94 303.58">
  <g id="katman_1" data-name="katman 1">
    <g id="Group_15" data-name="Group 15">
      <path id="Path_55" data-name="Path 55" d="m107.46,287.73c4.3,2.3,23.8,4.9,33,4.4-.1-.5-.3-1.1-.5-1.6-7.9-13.8-12.3-29.3-12.9-45.1-1.3-13.5-.9-27,1.2-40.4,1.9-10.3,5-20.4,7.2-30.6,2.3-9.3,4-18.7,5.1-28.2,1.2-12.1-4.9-21-15-27.4-9.3-5.8-19.8-8.5-29.9-12.2-4.8-1.9-9.4-4.3-13.7-7.2-3.4-2.4-5.5-6.3-5.7-10.5-.1-1-.6-1.9-1.4-2.5-13-5.4-18.4-16.1-20.7-29.1-1.2-6.1-.7-12.4,1.3-18.3.3-.8.1-1.6-.3-2.3-5-4.5-4.1-9.6-1.6-14.8,2.8-5.8,4.5-6.8,10.9-5.9,12.8,1.8,25.4,3.9,38.2,5.7,3,.4,6,.5,9,.3,3.1,0,5.9-1.7,7.4-4.4,2.6-4.4,5.4-8.7,8.4-12.8,1.2-1.5,2.9-2.6,4.8-3.1,13.6-2.5,27.6-2.3,41.1.7,9.8,1.9,19.5,4.1,29.2,6.4,6.5,1.5,11.8,6.1,14.2,12.3.7,1.4,2,2.4,3.6,2.6,7.9,2.4,15.9,4.7,23.7,7.4,7.3,2,12.3,8.8,12,16.4.3,12.1,1.4,24.1,1.8,36.2.2,6.3-1.5,12.6-4.9,18-2.1,3.8-5.6,6.6-9.8,7.8-2.6.9-5.4-.5-6.3-3.1-.9-2.5.4-5.3,2.9-6.2.2-.1.3-.1.5-.1,4.8-2.3,7.7-7.2,7.3-12.4.5-8.5.2-17-.1-25.5-.2-4.9-1.3-9.7-1.4-14.6.2-3.3-2-6.3-5.2-7.1-5.5-2-11.1-3.9-16.7-5.7-3.4-1-7.1-1.4-10.5-2.5-1.8-.6-3.4-1.8-4.2-3.5-1.8-6.1-6.9-10.6-13.2-11.6-16.4-3.6-32.7-7.5-49.7-7.1-3.1,0-6.2.3-9.3.8-1.4.4-2.6,1.2-3.5,2.4-2.1,2.7-4,5.5-5.6,8.5-4.7,9-12.8,10.9-21.9,10.2-5.9-.5-11.8-2-17.7-2.9-7.8-1.2-15.6-2.2-23.5-3.2-1.2,0-2.3.6-3,1.5-.4.6.2,2.1.8,2.9.9,1.3,2.5,2.2,3.1,3.6.8,1.5,1,3.3.5,4.9-5,8.6-3.3,17.2-.2,25.7,2.5,7,8.4,12.3,15.7,14,5,1.5,5.6,3.2,4.5,8.2-.2,1.8.4,3.6,1.7,4.9,3.5,4,8.8,4.9,13.5,6.7,8.7,2.9,17.2,6.3,25.5,10.2,19.7,10.5,26.8,26.6,22.1,48.4-3.2,14.8-7.1,29.5-10.4,44.3-2.6,14-3.3,28.3-2,42.4.3,12.5,3.3,24.8,8.6,36.2,1.2,2.4,2.7,4.7,3.8,7.1,1.4,3.5,5.4,5.3,8.9,4,26.1-3.9,50.4-15.7,69.5-33.9,19-17.9,32.1-41.2,37.4-66.7,2-5-.1-10.7-4.8-13.2-12.4-8.5-23.1-19.3-31.6-31.7-6.2-9.9-9.8-21.1-10.4-32.8-.4-5.2-.1-10.4-.3-15.6-.1-1-.6-1.9-1.5-2.4-7.9-2.7-13.7-9.4-15.3-17.5-.9-3.4-1.5-6.8-1.8-10.3-.5-2.5,1.1-5,3.7-5.5.3-.1.5-.1.8-.1,2.7-.3,4.6,1.9,5.3,5,.9,4.5,2.1,8.9,3.6,13.2,1.2,2.1,2.7,4,4.5,5.6.3-2,.4-3.1.6-4.1.3-2.5,2.4-4.4,4.9-4.3,2.6.1,4.7,2.2,4.8,4.8-.1,2.3.2,4.6.6,6.8.8,2.8,2.2,5.5,3.9,7.9,1.7,2.2,3,4,1.8,6.7s-3.5,2.9-6.3,2.7c0,9,1.7,18,5.1,26.4,2.4,6.4,6.2,12.2,11.1,16.9,6.7,6.4,13.5,12.8,20.2,19.2,1,.8,2.1,1.6,3.2,2.3,0-6,.4-11.6-.1-17.1-1.3-15.5-5.4-30.5-12.3-44.4-1.8-2.6-1.2-6.3,1.5-8.1.2-.1.4-.3.6-.4,3.3-1.6,6.3-.3,8.2,3.6,10.2,20.6,14.9,43.4,13.7,66.3-2.4,46.2-23,82.6-60.7,109.1-20.2,14.3-44.1,22.5-68.8,23.8-43.2,3.5-85.5-13.6-114-46.2C16.46,236.43,4.56,210.53,1.26,182.93c-3.7-27.2.8-55,12.9-79.6,7-14.2,16.4-27.1,27.7-38.2,3.2-3.2,6.6-3.4,9.2-.7,2.1,2.5,1.8,6.3-.7,8.4-.1.1-.3.2-.4.3-13.7,13.2-24.2,29.3-30.7,47.1-8,21.5-10,44.7-5.9,67.3.2.6.5,1.2.8,1.8,2.6-8,4.2-16.4,4.9-24.8.3-6.9.9-13.7,1.5-20.6.5-7.4,4-14.2,9.8-18.9,2.4-2.1,3.9-5.1,4.1-8.2.9-5.2,2-10.4,3.4-15.5,1.4-4.5,4.4-8.4,8.4-11,4-2.9,7.1-1.8,8.9,2.7,1.3,3.3,2.9,6.6,4.2,9.9,1.3,2.4.4,5.5-2,6.8-.1.1-.3.2-.5.2-2.6,1-5.5-.2-6.6-2.8-.1-.1-.1-.3-.1-.4-.6-1.5-1.4-2.8-2.5-3.9-.8,2.8-1.8,5.5-2.3,8.3-.8,4.1-1.2,8.3-2,12.4-.2,1.7-1,3.4-2.3,4.6-7.7,6-12.1,15.3-11.8,25.1.1,7.1-.4,14.2-1.5,21.2-2,10.2-5.1,20.1-7.9,30.1-.7,1.9-.6,4.1.1,6,13.3,34.3,40.7,61.2,75.2,73.9.7.3,1.3.4,2.5.7.9-3.7,1.8-7.3,2.5-11,3-12.3,4.6-25,4.7-37.7-.9-11.4-3.9-22.5-8.9-32.8-2.4-5.5-5.1-10.9-7-16.5-3.1-8.6,0-18.2,7.5-23.4,3.7-2.8,7.7-5.3,11.7-7.8,1.9-1,3.1-2.8,3.3-5,.8-3.7.4-7.6-1.1-11.1-.6-1.7-.9-3.5-.7-5.3,0-1.7-.3-2.7-2.2-2.7-7.6.1-12-4.7-15.7-10.4-.8-1.5-2.4-2.4-4.1-2.2-8.1.3-16.2.4-24.3.5-3.8.1-6-1.6-6.1-4.6-.1-3.2,1.7-5.1,5.6-5.2,9.6-.2,19.2-.2,28.8-.3,2.6-.1,5,1.2,6.2,3.4.5.9,1.3,1.6,1.8,2.4,2,4.3,6.3,7,11,6.9,1.1.1,2.2.4,3.2.8,6.5,2,6.9,2.8,6,9.6-.1,1.7.1,3.3.6,4.9,2.1,6.7,1.8,14-1,20.5-1.2,2.1-3,4-5.1,5.3-3.4,2.5-7.1,4.6-10.5,7-5.7,2.9-8,9.9-5.1,15.6.1.2.2.4.3.6,2.7,6.5,5.6,12.8,8.4,19.2,7.4,17.2,9.2,36.3,5.2,54.7-1.7,8.9-3.4,18-5.2,27.2"/>
      <path id="Path_57" data-name="Path 57" d="m73.96,131.73c.1-1.9.3-3.9,3.1-4,2.3-.1,4.7,3.1,4.6,6.4,0,2-.5,3.9-3,4.1-2.4.1-4.7-3-4.7-6.5"/>
      <path id="Path_58" data-name="Path 58" d="m159.86,36.23c0,3.3-2.2,6.5-4.6,6.4-2.6-.1-3.1-2.1-3.1-4.3,0-3.3,2.3-6.3,4.8-6.2,1.9.1,2.9,1.5,2.9,4.1"/>
    </g>
  </g>
</svg>