<?xml version="1.0" encoding="UTF-8"?>
<svg id="Layer_2" data-name="Layer 2" xmlns="http://www.w3.org/2000/svg" viewBox="0 0 448.06 403.88">
  <g id="Layer_1-2" data-name="Layer 1">
    <g>
      <path d="m159.28,147.96c1.62,0,3.25-.05,4.87-.22,32.43-2.63,51.63-29.01,51.35-70.62l-.17-2.86c-.22-3.86-.39-7.79-.84-11.59C210.85,28.46,186.72,1.57,158.27.06c-28.79-1.4-52.19,20.94-58.74,55.89-2.02,10.69-2.13,22.18-.28,32.26,6.61,36.85,29.85,59.81,59.92,59.81l.11-.06Z"/>
      <path d="m.07,168.62c.22,21.34,8.06,41.11,21.56,54.15,10.53,10.14,23.97,15.68,38.02,15.68h1.4c32.48-.89,52.53-25.09,52.25-63.22-.28-40.27-26.21-71.96-59.14-72.13h-.28c-13.38,0-25.59,5.1-35.22,14.79C6.45,130.15-.22,148.18,0,168.62h.06Z"/>
      <path d="m289.76.06c-28.39,1.51-52.59,28.45-56.22,62.66-.39,3.86-.62,7.73-.79,11.59l-.17,2.86c-.28,41.61,18.93,67.98,51.35,70.62,1.62.11,3.3.22,4.87.22,30.07,0,53.31-22.96,59.92-59.81,1.79-10.08,1.68-21.56-.28-32.26C341.9,21,318.32-1.23,289.76.06h0Z"/>
      <path d="m388.48,238.45c14.05,0,27.5-5.54,38.02-15.68,13.5-13.05,21.39-32.76,21.56-54.15.17-20.44-6.44-38.41-18.65-50.73-9.63-9.69-21.84-14.79-35.22-14.79h-.28c-32.93.17-58.86,31.86-59.14,72.13-.22,38.14,19.77,62.38,52.25,63.22h1.46Z"/>
      <path d="m376.22,293.28c-8.4-21.89-25.87-39.2-47.82-47.49-16.91-6.38-22.68-14.34-26.54-25.14-9.74-27.44-30.97-47.27-56.67-53.03-7.22-1.62-14.34-2.46-21.17-2.46-32.87,0-62.55,19.49-75.6,49.73-9.02,20.89-19.43,27.27-29.34,31.08-21.84,8.4-39.15,25.82-47.38,47.77-8.29,21.89-6.78,46.48,4.14,67.43,13.89,26.66,44.41,42.73,75.32,42.73,10.92,0,21.84-2.02,32.14-6.27,2.46-1.01,4.87-2.07,7.28-3.14,21.05-9.57,45.25-9.57,66.41-.11,2.63,1.18,5.32,2.35,8.06,3.41,39.59,16.02,88.76-.95,107.35-36.96,10.81-21,12.21-45.64,3.81-67.54h0Z"/>
    </g>
  </g>
</svg>