<?xml version="1.0" encoding="UTF-8"?>
<svg id="Layer_2" data-name="Layer 2" xmlns="http://www.w3.org/2000/svg" viewBox="0 0 453.6 374.73">
  <g id="Layer_1-2" data-name="Layer 1">
    <path d="m155.41,152.12c28.42,0,50.68-33.41,50.68-76.06S183.83,0,155.41,0s-50.69,33.41-50.69,76.06,22.27,76.06,50.69,76.06Zm0-135.31c18.37,0,33.88,27.14,33.88,59.26s-15.52,59.26-33.88,59.26-33.89-27.14-33.89-59.26,15.52-59.26,33.89-59.26Zm142.8,135.31c28.42,0,50.68-33.41,50.68-76.06S326.63,0,298.21,0s-50.69,33.41-50.69,76.06,22.26,76.06,50.69,76.06Zm0-135.31c18.37,0,33.88,27.14,33.88,59.26s-15.52,59.26-33.88,59.26-33.89-27.14-33.89-59.26,15.52-59.26,33.89-59.26Zm154.62,131.54c-2.48-16.68-10.6-28.8-22.87-34.15-12.27-5.36-26.69-3.05-40.59,6.49-12.71,8.72-23.71,22.69-30.96,39.35-15.82,36.29-9.17,73.02,15.12,83.62,4.33,1.89,8.93,2.82,13.68,2.82,8.71,0,17.92-3.14,26.92-9.31,12.71-8.72,23.71-22.69,30.96-39.34,7.27-16.65,10.02-34.22,7.75-49.46h0Zm-23.15,42.76c-6.02,13.8-14.91,25.24-25.06,32.2-5.18,3.55-15.24,8.91-24.38,4.95-15.14-6.6-18.1-34.77-6.44-61.51,6.02-13.81,14.92-25.24,25.07-32.2,3.88-2.66,10.51-6.35,17.43-6.35,2.31,0,4.65.41,6.94,1.41,9.13,3.98,12.05,15.01,12.97,21.22,1.8,12.17-.52,26.47-6.54,40.29h0Zm-334.47-31.07c-7.26-16.66-18.26-30.63-30.97-39.34-13.91-9.53-28.32-11.83-40.59-6.49-12.28,5.35-20.4,17.48-22.88,34.15-2.27,15.24.49,32.81,7.75,49.47,7.26,16.65,18.25,30.62,30.96,39.34,9,6.18,18.21,9.31,26.91,9.31,4.75,0,9.35-.93,13.68-2.82,24.29-10.6,30.94-47.33,15.13-83.62h0Zm-21.84,68.22c-9.14,3.97-19.2-1.39-24.38-4.95-10.15-6.96-19.05-18.4-25.07-32.2-6.02-13.81-8.34-28.12-6.53-40.29.93-6.22,3.84-17.24,12.97-21.22h0c2.28-1,4.62-1.41,6.93-1.41,6.92,0,13.55,3.69,17.43,6.35,10.15,6.96,19.06,18.4,25.07,32.2,11.65,26.75,8.7,54.91-6.44,61.52h0Zm225.89-.75c-1.48,0-2.94.08-4.39.22-1.25.14-2.73-.29-3.26-1.86-12.05-35.98-36.89-58.33-64.8-58.33s-52.75,22.35-64.8,58.33c-.53,1.56-2.07,2.01-3.27,1.86-1.45-.15-2.91-.22-4.38-.22-30.33,0-55,31.61-55,70.48s24.67,70.48,55,70.48c11.25,0,21.95-4.25,31.1-12.33,12.11,12.18,26.35,18.61,41.35,18.61s29.25-6.42,41.34-18.6c9.16,8.07,19.86,12.32,31.11,12.32,30.32,0,55-31.62,55-70.48,0-38.86-24.67-70.48-55-70.48h0Zm0,124.16c-7.66,0-15.1-3.29-21.51-9.53-2.69-2.61-6.34-4.05-10.11-3.96-3.76.1-7.23,1.67-9.79,4.44-6.46,6.99-17.09,15.32-31.04,15.32s-24.59-8.34-31.04-15.32c-2.55-2.77-6.03-4.34-9.79-4.45-.12,0-.24,0-.37,0-3.61,0-7.14,1.43-9.74,3.96-6.41,6.23-13.85,9.53-21.51,9.53-21.06,0-38.2-24.08-38.2-53.68s17.14-53.68,38.2-53.68c.89,0,1.77.04,2.64.14,9.39,1,17.99-4.45,20.94-13.22,9.54-28.48,28.72-46.88,48.88-46.88s39.33,18.4,48.87,46.87c2.94,8.77,11.48,14.21,20.93,13.23.87-.09,1.75-.14,2.65-.14,21.07,0,38.2,24.08,38.2,53.68s-17.13,53.68-38.2,53.68h0Z"/>
  </g>
</svg>