<?xml version="1.0" encoding="UTF-8"?>
<svg id="Layer_2" data-name="Layer 2" xmlns="http://www.w3.org/2000/svg" viewBox="0 0 350 489.56">
  <defs>
    <style>
      .cls-1 {
        fill: #fff;
      }
    </style>
  </defs>
  <g id="Layer_1-2" data-name="Layer 1">
    <g>
      <path d="m175,0C78.48,0,0,78.52,0,175.01c0,152.73,144.07,298.59,150.25,304.74,12.86,12.78,36.11,13.39,49.5,0,6.15-6.12,150.25-152,150.25-304.75C350,78.51,271.52,0,175,0h0Zm0,210c-19.33,0-35-15.67-35-35s15.67-35,35-35,35,15.67,35,35-15.67,35-35,35Z"/>
      <circle cx="175" cy="175.01" r="35"/>
      <path class="cls-1" d="m124.02,139.67c20.29,0,36.19-23.85,36.19-54.3s-15.89-54.3-36.19-54.3-36.19,23.85-36.19,54.3,15.9,54.3,36.19,54.3Zm0-96.61c13.11,0,24.19,19.38,24.19,42.31s-11.08,42.31-24.19,42.31-24.19-19.38-24.19-42.31,11.08-42.31,24.19-42.31Zm101.96,96.61c20.29,0,36.19-23.85,36.19-54.3s-15.89-54.3-36.19-54.3-36.19,23.85-36.19,54.3,15.89,54.3,36.19,54.3Zm0-96.61c13.12,0,24.19,19.38,24.19,42.31s-11.08,42.31-24.19,42.31-24.2-19.38-24.2-42.31,11.08-42.31,24.2-42.31Zm110.4,93.92c-1.77-11.91-7.57-20.56-16.33-24.38-8.76-3.82-19.06-2.18-28.98,4.63-9.08,6.23-16.93,16.2-22.11,28.09-11.29,25.91-6.55,52.13,10.8,59.7,3.09,1.35,6.38,2.01,9.76,2.01,6.22,0,12.8-2.24,19.22-6.65,9.08-6.23,16.93-16.2,22.1-28.09,5.19-11.89,7.16-24.43,5.54-35.32h0Zm-16.53,30.53c-4.3,9.86-10.65,18.02-17.89,22.99-3.7,2.54-10.88,6.36-17.4,3.53-10.81-4.71-12.92-24.83-4.6-43.92,4.3-9.86,10.65-18.02,17.9-22.99,2.77-1.9,7.51-4.53,12.45-4.53,1.65,0,3.32.3,4.96,1,6.52,2.84,8.6,10.72,9.26,15.15,1.29,8.69-.37,18.9-4.67,28.76h0Zm-238.8-22.19c-5.18-11.89-13.04-21.87-22.11-28.09-9.93-6.81-20.22-8.45-28.98-4.63-8.77,3.82-14.57,12.48-16.34,24.38-1.62,10.88.35,23.42,5.53,35.32,5.18,11.89,13.03,21.87,22.11,28.09,6.42,4.41,13,6.65,19.22,6.65,3.39,0,6.67-.67,9.77-2.01,17.34-7.57,22.09-33.79,10.8-59.71h0Zm-15.59,48.71c-6.52,2.83-13.71-.99-17.41-3.53-7.25-4.97-13.6-13.14-17.9-22.99-4.3-9.86-5.95-20.07-4.66-28.76.66-4.44,2.74-12.31,9.26-15.15h0c1.63-.71,3.3-1,4.95-1,4.94,0,9.68,2.63,12.45,4.53,7.25,4.97,13.6,13.14,17.9,22.99,8.31,19.1,6.21,39.21-4.6,43.92h0Zm161.28-.54c-1.06,0-2.1.06-3.13.16-.89.1-1.95-.21-2.33-1.32-8.61-25.69-26.34-41.65-46.27-41.65s-37.66,15.96-46.27,41.65c-.38,1.12-1.48,1.43-2.33,1.32-1.03-.11-2.07-.16-3.13-.16-21.65,0-39.27,22.57-39.27,50.32s17.62,50.32,39.27,50.32c8.03,0,15.67-3.03,22.21-8.8,8.64,8.7,18.81,13.28,29.52,13.28s20.88-4.59,29.52-13.28c6.54,5.76,14.18,8.8,22.21,8.8,21.65,0,39.27-22.58,39.27-50.32,0-27.75-17.62-50.32-39.27-50.32h0Zm0,88.65c-5.47,0-10.78-2.35-15.36-6.8-1.92-1.87-4.53-2.89-7.21-2.83-2.68.07-5.17,1.19-6.99,3.17-4.61,4.99-12.2,10.94-22.16,10.94s-17.55-5.95-22.16-10.94c-1.82-1.97-4.31-3.1-6.99-3.17-.09,0-.17,0-.26,0-2.58,0-5.1,1.02-6.96,2.83-4.58,4.45-9.89,6.81-15.36,6.81-15.04,0-27.27-17.19-27.27-38.33s12.24-38.32,27.27-38.32c.64,0,1.27.03,1.88.1,6.7.71,12.85-3.17,14.95-9.44,6.81-20.33,20.51-33.47,34.9-33.47s28.08,13.14,34.89,33.46c2.1,6.26,8.2,10.14,14.95,9.45.62-.07,1.25-.1,1.89-.1,15.04,0,27.27,17.19,27.27,38.32s-12.23,38.32-27.27,38.32h0Z"/>
    </g>
  </g>
</svg>